<svg width="646" height="117" viewBox="0 0 646 117" fill="none" xmlns="http://www.w3.org/2000/svg">
<rect x="3.60669" y="32.7887" width="43.2295" height="14.1614" rx="7.0807" transform="rotate(-30 3.60669 32.7887)" fill="#DB4437"/>
<rect x="10.6169" y="25.7292" width="43.2295" height="14.1614" rx="7.0807" transform="rotate(29.5587 10.6169 25.7292)" fill="#4285F4"/>
<rect x="98.437" y="37.5359" width="43.2295" height="14.1614" rx="7.0807" transform="rotate(150 98.437 37.5359)" fill="#F4B400"/>
<rect x="91.4268" y="44.5953" width="43.2295" height="14.1614" rx="7.0807" transform="rotate(-150.441 91.4268 44.5953)" fill="#0F9D58"/>
<path d="M129.69 16.2396H139.995C143.325 16.2396 146.235 16.9146 148.725 18.2646C151.215 19.6146 153.12 21.5196 154.44 23.9796C155.79 26.4096 156.465 29.1996 156.465 32.3496C156.465 35.4996 155.79 38.3046 154.44 40.7646C153.12 43.1946 151.215 45.0846 148.725 46.4346C146.235 47.7846 143.325 48.4596 139.995 48.4596H129.69V16.2396ZM139.905 43.6446C143.505 43.6446 146.31 42.6546 148.32 40.6746C150.36 38.6646 151.38 35.8896 151.38 32.3496C151.38 28.8396 150.36 26.0796 148.32 24.0696C146.31 22.0596 143.505 21.0546 139.905 21.0546H134.73V43.6446H139.905ZM171.225 49.1796C168.975 49.1796 166.95 48.6546 165.15 47.6046C163.38 46.5546 161.985 45.1146 160.965 43.2846C159.975 41.4246 159.48 39.3396 159.48 37.0296C159.48 34.8396 159.96 32.8146 160.92 30.9546C161.91 29.0646 163.275 27.5646 165.015 26.4546C166.755 25.3446 168.735 24.7896 170.955 24.7896C173.265 24.7896 175.26 25.2996 176.94 26.3196C178.65 27.3396 179.94 28.7346 180.81 30.5046C181.71 32.2746 182.16 34.2696 182.16 36.4896C182.16 36.9096 182.115 37.4346 182.025 38.0646H164.43C164.61 40.1946 165.36 41.8446 166.68 43.0146C168.03 44.1546 169.59 44.7246 171.36 44.7246C172.77 44.7246 173.985 44.4096 175.005 43.7796C176.055 43.1196 176.895 42.2346 177.525 41.1246L181.71 43.1046C180.63 44.9946 179.22 46.4796 177.48 47.5596C175.74 48.6396 173.655 49.1796 171.225 49.1796ZM177.12 34.2846C177.06 33.4746 176.805 32.6796 176.355 31.8996C175.905 31.0896 175.215 30.4146 174.285 29.8746C173.385 29.3346 172.275 29.0646 170.955 29.0646C169.365 29.0646 168.015 29.5446 166.905 30.5046C165.825 31.4346 165.075 32.6946 164.655 34.2846H177.12ZM183.664 25.5096H189.199L195.544 42.0696H195.724L202.204 25.5096H207.604L198.064 48.4596H193.114L183.664 25.5096ZM220.62 49.1796C218.37 49.1796 216.345 48.6546 214.545 47.6046C212.775 46.5546 211.38 45.1146 210.36 43.2846C209.37 41.4246 208.875 39.3396 208.875 37.0296C208.875 34.8396 209.355 32.8146 210.315 30.9546C211.305 29.0646 212.67 27.5646 214.41 26.4546C216.15 25.3446 218.13 24.7896 220.35 24.7896C222.66 24.7896 224.655 25.2996 226.335 26.3196C228.045 27.3396 229.335 28.7346 230.205 30.5046C231.105 32.2746 231.555 34.2696 231.555 36.4896C231.555 36.9096 231.51 37.4346 231.42 38.0646H213.825C214.005 40.1946 214.755 41.8446 216.075 43.0146C217.425 44.1546 218.985 44.7246 220.755 44.7246C222.165 44.7246 223.38 44.4096 224.4 43.7796C225.45 43.1196 226.29 42.2346 226.92 41.1246L231.105 43.1046C230.025 44.9946 228.615 46.4796 226.875 47.5596C225.135 48.6396 223.05 49.1796 220.62 49.1796ZM226.515 34.2846C226.455 33.4746 226.2 32.6796 225.75 31.8996C225.3 31.0896 224.61 30.4146 223.68 29.8746C222.78 29.3346 221.67 29.0646 220.35 29.0646C218.76 29.0646 217.41 29.5446 216.3 30.5046C215.22 31.4346 214.47 32.6946 214.05 34.2846H226.515ZM236.063 16.2396H241.013V48.4596H236.063V16.2396ZM257.364 49.1796C255.054 49.1796 252.984 48.6546 251.154 47.6046C249.324 46.5246 247.899 45.0546 246.879 43.1946C245.859 41.3346 245.349 39.2646 245.349 36.9846C245.349 34.7046 245.859 32.6346 246.879 30.7746C247.899 28.9146 249.324 27.4596 251.154 26.4096C252.984 25.3296 255.054 24.7896 257.364 24.7896C259.674 24.7896 261.744 25.3296 263.574 26.4096C265.404 27.4896 266.829 28.9596 267.849 30.8196C268.869 32.6796 269.379 34.7346 269.379 36.9846C269.379 39.2646 268.869 41.3346 267.849 43.1946C266.829 45.0546 265.404 46.5246 263.574 47.6046C261.744 48.6546 259.674 49.1796 257.364 49.1796ZM257.364 44.6346C258.624 44.6346 259.794 44.3346 260.874 43.7346C261.954 43.1046 262.809 42.2196 263.439 41.0796C264.099 39.9096 264.429 38.5446 264.429 36.9846C264.429 35.4246 264.099 34.0746 263.439 32.9346C262.809 31.7946 261.954 30.9246 260.874 30.3246C259.794 29.6946 258.624 29.3796 257.364 29.3796C256.104 29.3796 254.934 29.6946 253.854 30.3246C252.774 30.9246 251.904 31.7946 251.244 32.9346C250.614 34.0746 250.299 35.4246 250.299 36.9846C250.299 38.5446 250.614 39.9096 251.244 41.0796C251.904 42.2196 252.774 43.1046 253.854 43.7346C254.934 44.3346 256.104 44.6346 257.364 44.6346ZM273.544 25.5096H278.269V28.5246H278.494C279.154 27.4746 280.129 26.5896 281.419 25.8696C282.709 25.1496 284.164 24.7896 285.784 24.7896C287.854 24.7896 289.729 25.3146 291.409 26.3646C293.089 27.4146 294.409 28.8696 295.369 30.7296C296.359 32.5596 296.854 34.6446 296.854 36.9846C296.854 39.3246 296.359 41.4246 295.369 43.2846C294.409 45.1146 293.089 46.5546 291.409 47.6046C289.729 48.6546 287.854 49.1796 285.784 49.1796C284.164 49.1796 282.709 48.8196 281.419 48.0996C280.129 47.3796 279.154 46.5096 278.494 45.4896H278.269L278.494 48.6846V58.1796H273.544V25.5096ZM285.064 44.6346C286.264 44.6346 287.389 44.3196 288.439 43.6896C289.489 43.0596 290.329 42.1596 290.959 40.9896C291.589 39.8196 291.904 38.4846 291.904 36.9846C291.904 35.4846 291.589 34.1646 290.959 33.0246C290.329 31.8546 289.489 30.9546 288.439 30.3246C287.389 29.6946 286.264 29.3796 285.064 29.3796C283.864 29.3796 282.739 29.6946 281.689 30.3246C280.669 30.9546 279.844 31.8546 279.214 33.0246C278.584 34.1646 278.269 35.4846 278.269 36.9846C278.269 38.4846 278.584 39.8196 279.214 40.9896C279.844 42.1596 280.669 43.0596 281.689 43.6896C282.739 44.3196 283.864 44.6346 285.064 44.6346ZM311.85 49.1796C309.6 49.1796 307.575 48.6546 305.775 47.6046C304.005 46.5546 302.61 45.1146 301.59 43.2846C300.6 41.4246 300.105 39.3396 300.105 37.0296C300.105 34.8396 300.585 32.8146 301.545 30.9546C302.535 29.0646 303.9 27.5646 305.64 26.4546C307.38 25.3446 309.36 24.7896 311.58 24.7896C313.89 24.7896 315.885 25.2996 317.565 26.3196C319.275 27.3396 320.565 28.7346 321.435 30.5046C322.335 32.2746 322.785 34.2696 322.785 36.4896C322.785 36.9096 322.74 37.4346 322.65 38.0646H305.055C305.235 40.1946 305.985 41.8446 307.305 43.0146C308.655 44.1546 310.215 44.7246 311.985 44.7246C313.395 44.7246 314.61 44.4096 315.63 43.7796C316.68 43.1196 317.52 42.2346 318.15 41.1246L322.335 43.1046C321.255 44.9946 319.845 46.4796 318.105 47.5596C316.365 48.6396 314.28 49.1796 311.85 49.1796ZM317.745 34.2846C317.685 33.4746 317.43 32.6796 316.98 31.8996C316.53 31.0896 315.84 30.4146 314.91 29.8746C314.01 29.3346 312.9 29.0646 311.58 29.0646C309.99 29.0646 308.64 29.5446 307.53 30.5046C306.45 31.4346 305.7 32.6946 305.28 34.2846H317.745ZM327.293 25.5096H332.018V28.8846H332.243C332.753 27.7146 333.638 26.7546 334.898 26.0046C336.158 25.2246 337.493 24.8346 338.903 24.8346C340.013 24.8346 340.943 24.9846 341.693 25.2846V30.4146C340.373 29.9346 339.188 29.6946 338.138 29.6946C336.998 29.6946 335.978 29.9946 335.078 30.5946C334.208 31.1946 333.518 32.0046 333.008 33.0246C332.498 34.0146 332.243 35.1096 332.243 36.3096V48.4596H327.293V25.5096ZM364.796 49.1796C362.126 49.1796 359.726 48.3996 357.596 46.8396C355.466 45.2796 353.996 43.0896 353.186 40.2696L357.956 38.3346C358.436 40.1046 359.276 41.5596 360.476 42.6996C361.706 43.8096 363.176 44.3646 364.886 44.3646C366.476 44.3646 367.826 43.9596 368.936 43.1496C370.046 42.3096 370.601 41.1696 370.601 39.7296C370.601 38.4096 370.106 37.3296 369.116 36.4896C368.156 35.6196 366.461 34.7496 364.031 33.8796L362.006 33.1596C359.846 32.4096 358.031 31.3296 356.561 29.9196C355.091 28.5096 354.356 26.6496 354.356 24.3396C354.356 22.7496 354.791 21.2796 355.661 19.9296C356.531 18.5796 357.731 17.5146 359.261 16.7346C360.821 15.9246 362.576 15.5196 364.526 15.5196C367.346 15.5196 369.596 16.2096 371.276 17.5896C372.956 18.9396 374.081 20.4696 374.651 22.1796L370.106 24.1146C369.776 23.0946 369.146 22.1946 368.216 21.4146C367.286 20.6346 366.086 20.2446 364.616 20.2446C363.146 20.2446 361.901 20.6196 360.881 21.3696C359.891 22.1196 359.396 23.0796 359.396 24.2496C359.396 25.3596 359.846 26.2746 360.746 26.9946C361.646 27.7146 363.056 28.4046 364.976 29.0646L367.001 29.7396C369.761 30.6996 371.891 31.9596 373.391 33.5196C374.921 35.0496 375.686 37.1046 375.686 39.6846C375.686 41.7846 375.146 43.5546 374.066 44.9946C372.986 46.4046 371.606 47.4546 369.926 48.1446C368.276 48.8346 366.566 49.1796 364.796 49.1796ZM388.905 48.8196C387.885 48.8196 386.925 48.6546 386.025 48.3246C385.125 47.9946 384.39 47.5596 383.82 47.0196C382.53 45.7296 381.885 43.9746 381.885 41.7546V29.8746H377.88V25.5096H381.885V19.0296H386.835V25.5096H392.415V29.8746H386.835V40.6746C386.835 41.9046 387.075 42.7746 387.555 43.2846C388.005 43.8846 388.785 44.1846 389.895 44.1846C390.405 44.1846 390.855 44.1246 391.245 44.0046C391.635 43.8546 392.055 43.6296 392.505 43.3296V48.1446C391.515 48.5946 390.315 48.8196 388.905 48.8196ZM405.492 49.1796C402.702 49.1796 400.572 48.3546 399.102 46.7046C397.662 45.0246 396.942 42.6996 396.942 39.7296V25.5096H401.892V39.0546C401.892 40.9146 402.327 42.3096 403.197 43.2396C404.097 44.1696 405.267 44.6346 406.707 44.6346C407.877 44.6346 408.912 44.3346 409.812 43.7346C410.712 43.1046 411.402 42.2796 411.882 41.2596C412.362 40.2396 412.602 39.1446 412.602 37.9746V25.5096H417.552V48.4596H412.872V45.4896H412.602C411.972 46.5696 410.997 47.4546 409.677 48.1446C408.357 48.8346 406.962 49.1796 405.492 49.1796ZM432.904 49.1796C430.834 49.1796 428.959 48.6546 427.279 47.6046C425.599 46.5546 424.264 45.1146 423.274 43.2846C422.314 41.4246 421.834 39.3246 421.834 36.9846C421.834 34.6446 422.314 32.5596 423.274 30.7296C424.264 28.8696 425.599 27.4146 427.279 26.3646C428.959 25.3146 430.834 24.7896 432.904 24.7896C434.524 24.7896 435.979 25.1496 437.269 25.8696C438.559 26.5896 439.534 27.4746 440.194 28.5246H440.419L440.194 25.2846V16.2396H445.144V48.4596H440.419V45.4896H440.194C439.534 46.5096 438.559 47.3796 437.269 48.0996C435.979 48.8196 434.524 49.1796 432.904 49.1796ZM433.624 44.6346C434.824 44.6346 435.934 44.3196 436.954 43.6896C438.004 43.0596 438.844 42.1596 439.474 40.9896C440.104 39.8196 440.419 38.4846 440.419 36.9846C440.419 35.4846 440.104 34.1646 439.474 33.0246C438.844 31.8546 438.004 30.9546 436.954 30.3246C435.934 29.6946 434.824 29.3796 433.624 29.3796C432.424 29.3796 431.299 29.6946 430.249 30.3246C429.199 30.9546 428.359 31.8546 427.729 33.0246C427.099 34.1646 426.784 35.4846 426.784 36.9846C426.784 38.4846 427.099 39.8196 427.729 40.9896C428.359 42.1596 429.199 43.0596 430.249 43.6896C431.299 44.3196 432.424 44.6346 433.624 44.6346ZM461.177 49.1796C458.927 49.1796 456.902 48.6546 455.102 47.6046C453.332 46.5546 451.937 45.1146 450.917 43.2846C449.927 41.4246 449.432 39.3396 449.432 37.0296C449.432 34.8396 449.912 32.8146 450.872 30.9546C451.862 29.0646 453.227 27.5646 454.967 26.4546C456.707 25.3446 458.687 24.7896 460.907 24.7896C463.217 24.7896 465.212 25.2996 466.892 26.3196C468.602 27.3396 469.892 28.7346 470.762 30.5046C471.662 32.2746 472.112 34.2696 472.112 36.4896C472.112 36.9096 472.067 37.4346 471.977 38.0646H454.382C454.562 40.1946 455.312 41.8446 456.632 43.0146C457.982 44.1546 459.542 44.7246 461.312 44.7246C462.722 44.7246 463.937 44.4096 464.957 43.7796C466.007 43.1196 466.847 42.2346 467.477 41.1246L471.662 43.1046C470.582 44.9946 469.172 46.4796 467.432 47.5596C465.692 48.6396 463.607 49.1796 461.177 49.1796ZM467.072 34.2846C467.012 33.4746 466.757 32.6796 466.307 31.8996C465.857 31.0896 465.167 30.4146 464.237 29.8746C463.337 29.3346 462.227 29.0646 460.907 29.0646C459.317 29.0646 457.967 29.5446 456.857 30.5046C455.777 31.4346 455.027 32.6946 454.607 34.2846H467.072ZM476.619 25.5096H481.344V28.5246H481.569C482.229 27.4446 483.204 26.5596 484.494 25.8696C485.814 25.1496 487.209 24.7896 488.679 24.7896C491.469 24.7896 493.584 25.6146 495.024 27.2646C496.494 28.8846 497.229 31.1046 497.229 33.9246V48.4596H492.279V34.5996C492.279 32.7996 491.829 31.4796 490.929 30.6396C490.059 29.7996 488.844 29.3796 487.284 29.3796C486.174 29.3796 485.184 29.6946 484.314 30.3246C483.444 30.9246 482.769 31.7346 482.289 32.7546C481.809 33.7746 481.569 34.8696 481.569 36.0396V48.4596H476.619V25.5096ZM511.073 48.8196C510.053 48.8196 509.093 48.6546 508.193 48.3246C507.293 47.9946 506.558 47.5596 505.988 47.0196C504.698 45.7296 504.053 43.9746 504.053 41.7546V29.8746H500.048V25.5096H504.053V19.0296H509.003V25.5096H514.583V29.8746H509.003V40.6746C509.003 41.9046 509.243 42.7746 509.723 43.2846C510.173 43.8846 510.953 44.1846 512.063 44.1846C512.573 44.1846 513.023 44.1246 513.413 44.0046C513.803 43.8546 514.223 43.6296 514.673 43.3296V48.1446C513.683 48.5946 512.483 48.8196 511.073 48.8196ZM544.978 49.1796C541.858 49.1796 539.008 48.4446 536.428 46.9746C533.848 45.5046 531.823 43.4796 530.353 40.8996C528.883 38.3196 528.148 35.4696 528.148 32.3496C528.148 29.2296 528.883 26.3796 530.353 23.7996C531.823 21.2196 533.848 19.1946 536.428 17.7246C539.008 16.2546 541.858 15.5196 544.978 15.5196C547.408 15.5196 549.613 15.9696 551.593 16.8696C553.603 17.7696 555.373 19.0746 556.903 20.7846L553.303 24.2496C552.193 22.9296 550.963 21.9546 549.613 21.3246C548.263 20.6646 546.718 20.3346 544.978 20.3346C542.818 20.3346 540.838 20.8296 539.038 21.8196C537.268 22.8096 535.858 24.2196 534.808 26.0496C533.758 27.8496 533.233 29.9496 533.233 32.3496C533.233 34.7496 533.758 36.8646 534.808 38.6946C535.858 40.4946 537.268 41.8896 539.038 42.8796C540.838 43.8696 542.818 44.3646 544.978 44.3646C548.578 44.3646 551.638 42.8646 554.158 39.8646L557.803 43.3746C556.243 45.2046 554.368 46.6296 552.178 47.6496C549.988 48.6696 547.588 49.1796 544.978 49.1796ZM562.181 16.2396H567.131V48.4596H562.181V16.2396ZM581.317 49.1796C578.527 49.1796 576.397 48.3546 574.927 46.7046C573.487 45.0246 572.767 42.6996 572.767 39.7296V25.5096H577.717V39.0546C577.717 40.9146 578.152 42.3096 579.022 43.2396C579.922 44.1696 581.092 44.6346 582.532 44.6346C583.702 44.6346 584.737 44.3346 585.637 43.7346C586.537 43.1046 587.227 42.2796 587.707 41.2596C588.187 40.2396 588.427 39.1446 588.427 37.9746V25.5096H593.377V48.4596H588.697V45.4896H588.427C587.797 46.5696 586.822 47.4546 585.502 48.1446C584.182 48.8346 582.787 49.1796 581.317 49.1796ZM611.379 49.1796C609.759 49.1796 608.304 48.8196 607.014 48.0996C605.724 47.3796 604.749 46.5096 604.089 45.4896H603.864V48.4596H599.139V16.2396H604.089V25.2846L603.864 28.5246H604.089C604.749 27.4746 605.724 26.5896 607.014 25.8696C608.304 25.1496 609.759 24.7896 611.379 24.7896C613.449 24.7896 615.324 25.3146 617.004 26.3646C618.684 27.4146 620.004 28.8696 620.964 30.7296C621.954 32.5596 622.449 34.6446 622.449 36.9846C622.449 39.3246 621.954 41.4246 620.964 43.2846C620.004 45.1146 618.684 46.5546 617.004 47.6046C615.324 48.6546 613.449 49.1796 611.379 49.1796ZM610.659 44.6346C611.859 44.6346 612.984 44.3196 614.034 43.6896C615.084 43.0596 615.924 42.1596 616.554 40.9896C617.184 39.8196 617.499 38.4846 617.499 36.9846C617.499 35.4846 617.184 34.1646 616.554 33.0246C615.924 31.8546 615.084 30.9546 614.034 30.3246C612.984 29.6946 611.859 29.3796 610.659 29.3796C609.459 29.3796 608.334 29.6946 607.284 30.3246C606.264 30.9546 605.439 31.8546 604.809 33.0246C604.179 34.1646 603.864 35.4846 603.864 36.9846C603.864 38.4846 604.179 39.8196 604.809 40.9896C605.439 42.1596 606.264 43.0596 607.284 43.6896C608.334 44.3196 609.459 44.6346 610.659 44.6346ZM635.106 49.1796C632.466 49.1796 630.306 48.6096 628.626 47.4696C626.946 46.2996 625.761 44.8146 625.071 43.0146L629.481 41.0796C630.021 42.2796 630.771 43.1946 631.731 43.8246C632.721 44.4546 633.846 44.7696 635.106 44.7696C636.336 44.7696 637.371 44.5596 638.211 44.1396C639.051 43.6896 639.471 43.0296 639.471 42.1596C639.471 41.3196 639.111 40.6596 638.391 40.1796C637.671 39.6996 636.561 39.2796 635.061 38.9196L632.316 38.2446C630.486 37.7946 628.971 36.9996 627.771 35.8596C626.571 34.7196 625.971 33.2796 625.971 31.5396C625.971 30.1896 626.361 29.0046 627.141 27.9846C627.951 26.9646 629.031 26.1846 630.381 25.6446C631.731 25.0746 633.201 24.7896 634.791 24.7896C636.921 24.7896 638.796 25.2246 640.416 26.0946C642.036 26.9346 643.206 28.1646 643.926 29.7846L639.606 31.6746C638.736 29.9046 637.146 29.0196 634.836 29.0196C633.726 29.0196 632.796 29.2446 632.046 29.6946C631.296 30.1446 630.921 30.7296 630.921 31.4496C630.921 32.1396 631.206 32.7096 631.776 33.1596C632.346 33.5796 633.186 33.9396 634.296 34.2396L637.671 35.0946C639.921 35.6646 641.616 36.5346 642.756 37.7046C643.926 38.8446 644.511 40.2546 644.511 41.9346C644.511 43.3746 644.091 44.6496 643.251 45.7596C642.441 46.8396 641.316 47.6796 639.876 48.2796C638.436 48.8796 636.846 49.1796 635.106 49.1796Z" fill="#434343"/>
<path d="M133.657 107.956C132.024 107.956 130.598 107.511 129.379 106.623C128.16 105.713 127.302 104.442 126.806 102.81L129.286 101.787C130.03 104.225 131.487 105.445 133.657 105.445C134.876 105.445 135.848 105.021 136.571 104.174C137.315 103.326 137.687 102.21 137.687 100.826V85.2636H140.322V100.609C140.322 102.159 140.033 103.492 139.454 104.608C138.896 105.703 138.111 106.54 137.098 107.119C136.106 107.677 134.959 107.956 133.657 107.956ZM151.118 107.956C149.382 107.956 147.791 107.429 146.344 106.375C144.898 105.321 143.906 103.843 143.368 101.942L145.879 100.919C146.231 102.241 146.882 103.326 147.832 104.174C148.783 105.021 149.899 105.445 151.18 105.445C152.462 105.445 153.547 105.104 154.435 104.422C155.324 103.719 155.768 102.768 155.768 101.57C155.768 100.536 155.386 99.6889 154.621 99.0276C153.877 98.3456 152.648 97.7153 150.932 97.1366L149.537 96.6406C147.967 96.0826 146.685 95.3489 145.693 94.4396C144.701 93.5303 144.205 92.2696 144.205 90.6576C144.205 89.6036 144.495 88.6323 145.073 87.7436C145.652 86.8343 146.458 86.1109 147.491 85.5736C148.525 85.0363 149.682 84.7676 150.963 84.7676C152.245 84.7676 153.361 85.0053 154.311 85.4806C155.262 85.9559 156.016 86.5346 156.574 87.2166C157.153 87.8986 157.556 88.5703 157.783 89.2316L155.303 90.2856C155.097 89.5209 154.621 88.8286 153.877 88.2086C153.154 87.5886 152.193 87.2786 150.994 87.2786C149.858 87.2786 148.886 87.5989 148.08 88.2396C147.274 88.8803 146.871 89.6863 146.871 90.6576C146.871 91.5256 147.212 92.2386 147.894 92.7966C148.576 93.3339 149.61 93.8403 150.994 94.3156L152.451 94.8116C154.332 95.4936 155.799 96.3513 156.853 97.3846C157.907 98.3973 158.434 99.7819 158.434 101.539C158.434 102.965 158.062 104.163 157.318 105.135C156.595 106.106 155.675 106.819 154.559 107.274C153.443 107.728 152.296 107.956 151.118 107.956ZM168.495 107.956C166.759 107.956 165.168 107.429 163.721 106.375C162.275 105.321 161.283 103.843 160.745 101.942L163.256 100.919C163.608 102.241 164.259 103.326 165.209 104.174C166.16 105.021 167.276 105.445 168.557 105.445C169.839 105.445 170.924 105.104 171.812 104.422C172.701 103.719 173.145 102.768 173.145 101.57C173.145 100.536 172.763 99.6889 171.998 99.0276C171.254 98.3456 170.025 97.7153 168.309 97.1366L166.914 96.6406C165.344 96.0826 164.062 95.3489 163.07 94.4396C162.078 93.5303 161.582 92.2696 161.582 90.6576C161.582 89.6036 161.872 88.6323 162.45 87.7436C163.029 86.8343 163.835 86.1109 164.868 85.5736C165.902 85.0363 167.059 84.7676 168.34 84.7676C169.622 84.7676 170.738 85.0053 171.688 85.4806C172.639 85.9559 173.393 86.5346 173.951 87.2166C174.53 87.8986 174.933 88.5703 175.16 89.2316L172.68 90.2856C172.474 89.5209 171.998 88.8286 171.254 88.2086C170.531 87.5886 169.57 87.2786 168.371 87.2786C167.235 87.2786 166.263 87.5989 165.457 88.2396C164.651 88.8803 164.248 89.6863 164.248 90.6576C164.248 91.5256 164.589 92.2386 165.271 92.7966C165.953 93.3339 166.987 93.8403 168.371 94.3156L169.828 94.8116C171.709 95.4936 173.176 96.3513 174.23 97.3846C175.284 98.3973 175.811 99.7819 175.811 101.539C175.811 102.965 175.439 104.163 174.695 105.135C173.972 106.106 173.052 106.819 171.936 107.274C170.82 107.728 169.673 107.956 168.495 107.956ZM185.756 85.2636H188.732L197.164 107.46H194.281L192.049 101.353H182.47L180.238 107.46H177.355L185.756 85.2636ZM191.15 98.8726L188.205 90.8746L187.306 88.4876H187.182L186.314 90.8746L183.369 98.8726H191.15ZM202.636 87.7746H196.405V85.2636H211.471V87.7746H205.271V107.46H202.636V87.7746ZM214.79 85.2636H227.624V87.7746H217.394V95.1216H226.632V97.6016H217.394V104.949H227.624V107.46H214.79V85.2636ZM231.864 85.2636H235.088L246.217 102.934H246.341L246.217 98.6556V85.2636H248.852V107.46H246.124L234.468 88.9526H234.344L234.468 93.2306V107.46H231.864V85.2636Z" fill="#585858"/>
</svg>
